Coordinates
version=1
nRows=16
nColumns=36
inDegrees=yes

Units are S.I. units (second, meters, Newtons, ...)
If the header above contains a line with 'inDegrees', this indicates whether rotational values are in degrees (yes) or radians (no).

endheader
time	pelvis_tilt	pelvis_list	pelvis_rotation	pelvis_tx	pelvis_ty	pelvis_tz	hip_flexion_r	hip_adduction_r	hip_rotation_r	knee_angle_r	knee_angle_r_beta	ankle_angle_r	subtalar_angle_r	mtp_angle_r	hip_flexion_l	hip_adduction_l	hip_rotation_l	knee_angle_l	knee_angle_l_beta	ankle_angle_l	subtalar_angle_l	mtp_angle_l	lumbar_extension	lumbar_bending	lumbar_rotation	arm_flex_r	arm_add_r	arm_rot_r	elbow_flex_r	pro_sup_r	arm_flex_l	arm_add_l	arm_rot_l	elbow_flex_l	pro_sup_l
      2.03333330	      0.72953405	     -7.86726831	      9.54953116	      0.43492935	      0.86036536	      0.33668517	     25.16900765	      1.94664208	      4.83964208	      9.63354810	      0.16813713	      0.98079286	     -4.32312764	     -7.49983490	     10.00926233	      0.25744174	     -3.93443320	     22.22424614	      0.38788627	      7.79907497	     -3.25341429	     -7.49983490	      1.64912997	      2.78650260	      1.74060787	     51.43173328	     12.83545577	     65.17147062	    122.75881306	     97.41750253	     41.42910565	      0.32600951	     54.87475220	    119.04969271	     87.70692787
      2.05000000	      0.68928236	     -7.74640114	      9.55172840	      0.44236989	      0.85381385	      0.33892066	     25.02212583	      2.06676982	      4.64949347	      9.25813911	      0.16158501	      0.66158085	     -4.12167343	     -7.49984452	      9.47493733	      0.33667849	     -3.94900355	     21.47340374	      0.37478160	      7.58026461	     -3.60507762	     -7.49984452	      2.04339710	      2.37751046	      1.76296063	     51.50954348	     12.98779105	     64.79837729	    122.79396113	     95.42494161	     40.77679360	      1.11198536	     57.52939463	    120.52489781	     86.38554244
      2.06666670	      0.69940219	     -7.65716224	      9.61444932	      0.43583197	      0.85336484	      0.33660415	     25.36153448	      2.10788615	      4.43389190	      9.62145149	      0.16792601	      0.34257032	     -4.48591205	     -7.49984899	      9.35976121	      0.46356664	     -4.39226746	     21.24678838	      0.37082641	      7.18200011	     -4.33567669	     -7.49984899	      2.11248039	      2.27027610	      2.25238458	     51.38516103	     12.15732177	     63.59107117	    122.53071562	     96.07897208	     41.06278204	     -0.19124420	     51.96459372	    116.66722268	     86.66746378
      2.08333330	      0.58383419	     -7.62175863	      9.77503492	      0.43625693	      0.85391699	      0.33634114	     25.60564124	      2.11669552	      4.32996662	      9.61875235	      0.16787890	      0.11354172	     -4.98305400	     -7.49988936	      9.31815658	      0.67223352	     -4.16775755	     20.67147332	      0.36078527	      7.17717386	     -4.45735704	     -7.49988936	      2.26041892	      2.09432147	      2.13611556	     51.17224904	     11.59689113	     62.45742748	    122.89908348	     99.85859981	     41.14384292	      0.67574209	     50.64903102	    115.90181471	     89.30370730
      2.10000000	      0.47766492	     -7.60474308	      9.65763945	      0.43550081	      0.85832038	      0.33650932	     25.98750729	      2.26506345	      4.09659630	      9.89943812	      0.17277779	     -0.14650936	     -5.05555956	     -7.49989118	      9.16699111	      0.81015597	     -4.21203852	     20.04940036	      0.34992805	      6.84834684	     -4.43297604	     -7.49989118	      2.20450968	      2.06661507	      2.04512964	     51.06910878	     11.98558401	     62.93461896	    123.30199717	     99.84319630	     39.98537927	      1.77265404	     54.23602687	    118.36682955	     89.54220733
      2.11666670	      0.52010649	     -7.62905502	      9.73107729	      0.43629482	      0.85594948	      0.33643076	     26.32451968	      2.34218170	      3.95817275	     10.19664927	      0.17796510	     -0.45778586	     -5.30436380	     -7.49991651	      9.13748304	      0.92951222	     -3.93158226	     19.76885958	      0.34503169	      7.44236424	     -3.96289891	     -7.49991651	      1.95147709	      2.09982086	      2.90516841	     51.50522998	     11.43739892	     62.61220749	    124.08456901	     98.78072116	     40.61461346	      3.17821709	     58.77074950	    120.05935423	     89.09783145
      2.13333330	      0.74997709	     -7.41770718	      9.91758391	      0.43447456	      0.86737186	      0.33667369	     26.22732444	      2.30318539	      3.95587490	     10.41246331	      0.18173177	     -1.12080959	     -5.48814793	     -7.49992980	      8.71143680	      1.20098502	     -3.80766590	     19.28737772	      0.33662825	      6.88870902	     -3.93562453	     -7.49992980	      1.38093108	      1.80068133	      2.96561329	     51.38011702	     10.97529401	     62.80494115	    124.44032590	     98.25650799	     40.70524149	      3.66964195	     62.73233538	    121.38270821	     88.77017073
      2.15000000	      1.14252396	     -7.32965369	     10.15393979	      0.43509111	      0.86448771	      0.33612203	     25.70036679	      2.29835413	      3.53180330	     10.15539884	      0.17724515	     -1.40445166	     -4.79111047	     -7.49994072	      8.50081116	      1.16136137	     -4.07551576	     19.66343403	      0.34319167	      6.36591602	     -4.06017315	     -7.49994072	      1.08376576	      1.71523861	      2.76156747	     51.62268500	     11.16625008	     63.82882104	    124.56468711	     96.09777969	     41.30760282	      4.09080475	     65.90195329	    122.31720530	     86.98963454
      2.16666670	      1.40154654	     -7.24645768	     10.08994583	      0.43524157	      0.85925668	      0.33587338	     25.45146798	      2.36812054	      3.69162830	      9.81736971	      0.17134543	     -1.93817192	     -5.00546153	     -7.49994471	      8.35513117	      1.14040031	     -4.42728974	     19.98991123	      0.34888977	      6.21411741	     -3.84024074	     -7.49994471	      0.93506494	      1.56827031	      2.94640741	     52.17753907	     11.20927155	     64.12536031	    124.91748387	     96.50955014	     42.64775496	      5.08257912	     68.29200314	    122.54745202	     87.34317115
      2.18333330	      1.55778956	     -7.28538720	     10.17087908	      0.43484415	      0.86219664	      0.33577603	     25.36175790	      2.47884860	      3.62975619	      9.73978107	      0.16999125	     -2.40966047	     -5.02485319	     -7.49995724	      7.98987903	      1.07718155	     -4.60313601	     19.72811072	      0.34432049	      6.35044413	     -3.23116271	     -7.49995724	      1.01676620	      1.44874698	      3.08950834	     52.30455560	     11.05946604	     64.20964161	    125.03798766	     99.40801896	     43.67953768	      5.67609294	     69.96197839	    122.34808806	     88.92083518
      2.20000000	      1.56439819	     -7.33738000	     10.05520784	      0.43444965	      0.86192024	      0.33607721	     25.54525965	      2.65628748	      3.49922206	      9.75139333	      0.17019392	     -2.54240425	     -4.88783956	     -7.49996217	      8.05770136	      1.05221695	     -4.61998706	     19.90544417	      0.34741554	      6.43306411	     -3.43820202	     -7.49996217	      1.03829226	      1.57954291	      3.38892594	     52.77369592	     11.22290200	     65.32180329	    124.96182749	     98.13373994	     44.24016240	      5.72702804	     70.89803746	    122.61741804	     87.31272109
      2.21666670	      1.56598528	     -7.32248460	     10.12800196	      0.43458466	      0.86671923	      0.33597263	     25.70757050	      2.74976152	      3.58207475	      9.76272314	      0.17039166	     -2.55423872	     -4.81210127	     -7.49996226	      8.14832462	      1.09214330	     -4.53878487	     19.91803953	      0.34763537	      6.38969413	     -3.36780935	     -7.49996226	      0.82567033	      1.54988001	      3.28976624	     52.69178589	     11.10545186	     65.38654603	    124.88978488	     98.10817693	     44.33170625	      5.58236101	     70.91501963	    122.53225010	     87.29832630
      2.23333330	      1.79502818	     -7.21761791	     10.33273752	      0.43416504	      0.86357032	      0.33578041	     25.62436013	      2.67028742	      3.51918403	      9.84992681	      0.17191365	     -2.53161636	     -4.77168464	     -7.49997206	      8.09657048	      1.15619221	     -4.41372019	     20.31262086	      0.35452211	      6.61017814	     -2.81277071	     -7.49997206	      0.42212937	      1.51990631	      3.00369032	     53.52796262	     10.87312791	     66.00104280	    124.69650300	     98.92044367	     45.52176085	      5.14669116	     71.44407214	    122.58334043	     87.52957951
      2.25000000	      1.84606263	     -7.00215799	     10.42815046	      0.43470064	      0.86408217	      0.33580174	     25.73377848	      2.52304104	      3.61803507	      9.85310051	      0.17196905	     -2.42484419	     -4.69923103	     -7.49997614	      8.16630901	      1.41259501	     -4.40271959	     20.53648133	      0.35842922	      6.52162050	     -2.72858289	     -7.49997614	     -0.01276702	      1.23132256	      2.58326040	     54.39235589	     11.17057631	     66.58653504	    124.71170278	     99.32968332	     46.96469392	      5.53051895	     71.58847901	    122.48837853	     87.32023494
      2.26666670	      1.72331667	     -6.71750803	     10.49604583	      0.43386453	      0.86622676	      0.33583157	     25.85281571	      2.23105861	      3.60829729	      9.59211252	      0.16741395	     -2.26611336	     -4.53919931	     -7.49997898	      8.33863088	      1.75307562	     -4.69088505	     20.62430388	      0.35996201	      5.89832764	     -3.21594742	     -7.49997898	     -0.40437216	      1.08683826	      2.70234505	     54.98440491	     10.84677702	     67.15068502	    124.62164728	     97.40241065	     47.63328898	      5.12963856	     71.86336632	    122.75669745	     86.08119684
      2.28333330	      1.85390720	     -6.49098389	     10.51663102	      0.43420666	      0.87344207	      0.33624844	     25.65423773	      2.09568227	      3.59443330	      9.14919837	      0.15968364	     -2.26007806	     -4.15456880	     -7.49997952	      8.29994777	      1.79226612	     -5.02455599	     21.03183874	      0.36707483	      4.67437154	     -4.21910309	     -7.49997952	     -1.11791454	      0.90900910	      2.85145163	     55.41016202	     10.36813758	     67.86728212	    124.58789369	     97.93532012	     48.27863262	      5.17814952	     72.31997030	    122.41519484	     86.22645825
